<svg width="80" height="72" viewBox="0 0 80 72" fill="none" xmlns="http://www.w3.org/2000/svg">
<g clip-path="url(#clip0_46_207)">
<rect width="80" height="72" fill="#272727"/>
<path d="M52 47.2C53.05 47.2 53.6 47.2 53.6 47.2L52.8 58H22C22 58 22 57.25 22 56.65C25.8 56.65 26.7 54.05 26.7 50.9V30.15C26.7 27 25.8 24.4 22 24.4C22 23.8 22 23 22 23H51L51.8 33.8C51.8 33.8 51.3 33.8 50.25 33.8C48.65 28.8 46.2 25 41.9 25H35.15V39.5H35.8C40.1 39.5 42.9 39.5 43.35 33.25C44.4 33.25 44.7 33.25 44.7 33.25V47.75C44.7 47.75 44.4 47.75 43.35 47.75C42.9 41.5 40.1 41.5 35.8 41.5H35.15V56.05H43.7C48 56.05 50.4 52.25 52 47.2Z" fill="white"/>
<path d="M50.7832 16.1152C50.5228 16.2454 50.2461 16.3268 49.9531 16.3594C49.6602 16.3594 49.3672 16.3594 49.0742 16.3594C48.7812 16.3594 48.4883 16.3757 48.1953 16.4082C47.9023 16.4082 47.6094 16.4733 47.3164 16.6035C46.763 16.6686 46.4049 16.6361 46.2422 16.5059C46.0794 16.3431 46.0306 16.1315 46.0957 15.8711C46.1608 15.6107 46.3398 15.3177 46.6328 14.9922C46.9258 14.6667 47.2676 14.39 47.6582 14.1621C48.0163 13.9342 48.4069 13.7715 48.8301 13.6738C49.2858 13.5762 49.6927 13.5924 50.0508 13.7227C49.888 13.1367 49.9043 12.6322 50.0996 12.209C50.2949 11.7858 50.6855 11.5742 51.2715 11.5742C51.5645 11.5742 51.8249 11.6068 52.0527 11.6719C52.3132 11.7044 52.5085 11.8346 52.6387 12.0625C53.127 11.7695 53.778 11.2812 54.5918 10.5977C55.4056 9.88151 56.2357 9.16536 57.082 8.44922C57.9609 7.70052 58.7585 7.04948 59.4746 6.49609C60.1908 5.91016 60.679 5.61719 60.9395 5.61719C61.0371 5.61719 61.1673 5.63346 61.3301 5.66602C61.4928 5.66602 61.6556 5.69857 61.8184 5.76367C62.0137 5.82878 62.1602 5.91016 62.2578 6.00781C62.388 6.07292 62.4531 6.18685 62.4531 6.34961V8.44922C62.2253 9.36068 61.9974 10.2233 61.7695 11.0371C61.5742 11.8184 61.3952 12.5996 61.2324 13.3809C61.1022 14.1296 61.0046 14.8945 60.9395 15.6758C60.8743 16.457 60.8418 17.2871 60.8418 18.166C61.3626 18.166 61.9811 18.0521 62.6973 17.8242C63.446 17.5964 64.1947 17.3197 64.9434 16.9941C65.6921 16.6686 66.3919 16.3431 67.043 16.0176C67.694 15.6595 68.2148 15.3665 68.6055 15.1387C68.6706 15.1061 68.8171 14.9922 69.0449 14.7969C69.2728 14.6016 69.5169 14.4062 69.7773 14.2109C70.0378 13.9831 70.2819 13.7878 70.5098 13.625C70.7702 13.4297 70.9329 13.2995 70.998 13.2344C71.0632 13.1693 71.2259 13.0879 71.4863 12.9902C71.7467 12.86 71.8932 12.7786 71.9258 12.7461C72.056 12.7135 72.1699 12.7624 72.2676 12.8926C72.3978 12.9902 72.5117 13.1204 72.6094 13.2832C72.707 13.4134 72.7721 13.5599 72.8047 13.7227C72.8698 13.8529 72.9023 13.9342 72.9023 13.9668C72.9023 14.2923 72.7721 14.6178 72.5117 14.9434C72.2513 15.2689 71.9421 15.5781 71.584 15.8711C71.2259 16.1315 70.8516 16.3919 70.4609 16.6523C70.1029 16.8802 69.8262 17.0918 69.6309 17.2871C69.3704 17.4173 68.9147 17.6289 68.2637 17.9219C67.6452 18.2148 66.9779 18.5241 66.2617 18.8496C65.5456 19.1751 64.862 19.4844 64.2109 19.7773C63.5924 20.0703 63.153 20.2819 62.8926 20.4121C62.8275 20.4447 62.681 20.4935 62.4531 20.5586C62.2253 20.5911 61.9811 20.6562 61.7207 20.7539C61.4603 20.8516 61.1999 20.9329 60.9395 20.998C60.7116 21.0306 60.5651 21.0632 60.5 21.0957C60.207 21.1934 59.9792 21.3561 59.8164 21.584C59.6862 21.8118 59.5397 22.0397 59.377 22.2676C59.2467 22.4954 59.0677 22.6908 58.8398 22.8535C58.6445 23.0163 58.319 23.0651 57.8633 23C57.8307 22.9674 57.6842 22.9023 57.4238 22.8047C57.196 22.6745 57.0495 22.5768 56.9844 22.5117C56.2031 21.9583 55.5358 21.4375 54.9824 20.9492C54.429 20.4609 53.9245 19.9889 53.4688 19.5332C53.013 19.0449 52.5736 18.5241 52.1504 17.9707C51.7598 17.4173 51.304 16.7988 50.7832 16.1152ZM53.8594 14.1621C54.0872 14.6504 54.2988 15.1224 54.4941 15.5781C54.722 16.0339 54.9824 16.4733 55.2754 16.8965C55.5684 17.2871 55.8939 17.6289 56.252 17.9219C56.6426 18.2148 57.1146 18.3939 57.668 18.459C57.7331 17.9707 57.8145 17.3848 57.9121 16.7012C58.0098 16.0176 58.1237 15.3014 58.2539 14.5527C58.3841 13.804 58.5306 13.0716 58.6934 12.3555C58.8887 11.6068 59.1003 10.9557 59.3281 10.4023H58.8398C58.319 10.7604 57.8307 11.1185 57.375 11.4766C56.9518 11.8021 56.5286 12.1276 56.1055 12.4531C55.6823 12.7461 55.3405 13.0065 55.0801 13.2344C55.0475 13.2669 54.9987 13.3158 54.9336 13.3809C54.8685 13.446 54.8197 13.4785 54.7871 13.4785C54.7546 13.5436 54.6081 13.6576 54.3477 13.8203C54.0872 13.9831 53.9245 14.097 53.8594 14.1621ZM59.3281 9.66992C59.2305 9.66992 59.1816 9.7513 59.1816 9.91406C59.1816 10.0443 59.2305 10.1094 59.3281 10.1094C59.4583 10.1094 59.5234 10.0443 59.5234 9.91406C59.5234 9.7513 59.4583 9.66992 59.3281 9.66992Z" fill="#FF7676"/>
</g>
<defs>
<clipPath id="clip0_46_207">
<rect width="80" height="72" fill="white"/>
</clipPath>
</defs>
</svg>
