<svg width="61" height="25" viewBox="0 0 61 25" fill="none" xmlns="http://www.w3.org/2000/svg">
<g clip-path="url(#clip0_46_206)">
<path d="M18.44 16.408C18.692 16.408 18.824 16.408 18.824 16.408L18.632 19H11.24C11.24 19 11.24 18.82 11.24 18.676C12.152 18.676 12.368 18.052 12.368 17.296V12.316C12.368 11.56 12.152 10.936 11.24 10.936C11.24 10.792 11.24 10.6 11.24 10.6H18.2L18.392 13.192C18.392 13.192 18.272 13.192 18.02 13.192C17.636 11.992 17.048 11.08 16.016 11.08H14.396V14.56H14.552C15.584 14.56 16.256 14.56 16.364 13.06C16.616 13.06 16.688 13.06 16.688 13.06V16.54C16.688 16.54 16.616 16.54 16.364 16.54C16.256 15.04 15.584 15.04 14.552 15.04H14.396V18.532H16.448C17.48 18.532 18.056 17.62 18.44 16.408ZM23.1361 13.564H25.2481C25.2481 13.564 25.2481 13.792 25.2481 13.888C24.6481 13.888 24.3961 14.188 24.2041 14.668L22.4641 19H21.6601L19.7041 14.668C19.4641 14.176 19.3081 13.888 18.7081 13.888C18.7081 13.72 18.7081 13.564 18.7081 13.564H22.2241C22.2241 13.564 22.2241 13.792 22.2241 13.888C21.6841 13.888 21.5281 14.08 21.7441 14.668L22.7881 17.116L23.7721 14.668C24.0361 14.008 23.7721 13.888 23.1361 13.888C23.1361 13.72 23.1361 13.564 23.1361 13.564ZM30.7036 17.116C30.7036 17.116 30.9076 17.272 30.9076 17.284C30.5116 18.184 29.6476 19.108 28.1716 19.108C26.3596 19.108 25.1596 17.944 25.0396 16.504C24.8716 14.572 26.3236 13.444 28.1236 13.444C29.7316 13.444 30.8116 14.308 30.7516 15.892L27.0436 16.516C27.3316 18.064 29.6476 18.256 30.7036 17.116ZM27.9076 13.876C27.1516 13.948 26.8276 14.908 26.9716 16.048L28.9396 15.712C28.9996 14.56 28.7356 13.804 27.9076 13.876ZM38.4433 17.296C38.5393 18.004 38.6113 18.676 39.5233 18.676C39.5233 18.928 39.5233 19 39.5233 19H35.6713C35.6713 19 35.6713 18.82 35.6713 18.676C36.5833 18.676 36.5953 18.028 36.5113 17.296C36.5113 17.296 36.3433 16.204 36.2713 15.76C36.1633 15.052 36.0793 14.404 35.2513 14.404C34.5313 14.404 34.2313 15.04 34.2313 15.844V17.296C34.2313 18.052 34.3033 18.676 35.2153 18.676C35.2153 18.928 35.2153 19 35.2153 19H31.2673C31.2673 19 31.2673 18.82 31.2673 18.676C32.1793 18.676 32.2993 18.052 32.2993 17.296V16.084C32.2993 15.328 32.1793 14.704 31.2673 14.704C31.2673 14.56 31.2673 14.512 31.2673 14.38C31.9633 14.38 33.1873 14.08 33.9073 13.444C34.1113 13.444 34.2313 13.444 34.2313 13.444V14.38C34.5913 13.876 35.1673 13.444 36.1393 13.444C37.3513 13.444 37.9993 14.092 38.2153 15.604C38.3833 16.804 38.4433 17.296 38.4433 17.296ZM43.2762 17.668L43.5042 17.788C43.1922 18.532 42.7242 19.108 41.8362 19.108C40.8762 19.108 40.0962 18.472 40.0962 17.188C40.0962 17.188 40.0962 14.404 40.0962 14.032H39.1602C39.1602 14.032 39.1602 13.708 39.1602 13.564C40.3482 13.504 41.4162 12.832 41.6682 11.536C41.8722 11.536 42.0402 11.536 42.0402 11.536V13.564H43.3122V14.032H42.0402V17.284C42.0402 17.848 42.2442 18.004 42.5322 18.064C42.8442 18.112 43.0962 17.968 43.2762 17.668Z" fill="white"/>
<path d="M33.668 9.34766C33.6055 9.37891 33.5391 9.39844 33.4688 9.40625C33.3984 9.40625 33.3281 9.40625 33.2578 9.40625C33.1875 9.40625 33.1172 9.41016 33.0469 9.41797C32.9766 9.41797 32.9062 9.43359 32.8359 9.46484C32.7031 9.48047 32.6172 9.47266 32.5781 9.44141C32.5391 9.40234 32.5273 9.35156 32.543 9.28906C32.5586 9.22656 32.6016 9.15625 32.6719 9.07812C32.7422 9 32.8242 8.93359 32.918 8.87891C33.0039 8.82422 33.0977 8.78516 33.1992 8.76172C33.3086 8.73828 33.4062 8.74219 33.4922 8.77344C33.4531 8.63281 33.457 8.51172 33.5039 8.41016C33.5508 8.30859 33.6445 8.25781 33.7852 8.25781C33.8555 8.25781 33.918 8.26562 33.9727 8.28125C34.0352 8.28906 34.082 8.32031 34.1133 8.375C34.2305 8.30469 34.3867 8.1875 34.582 8.02344C34.7773 7.85156 34.9766 7.67969 35.1797 7.50781C35.3906 7.32812 35.582 7.17188 35.7539 7.03906C35.9258 6.89844 36.043 6.82812 36.1055 6.82812C36.1289 6.82812 36.1602 6.83203 36.1992 6.83984C36.2383 6.83984 36.2773 6.84766 36.3164 6.86328C36.3633 6.87891 36.3984 6.89844 36.4219 6.92188C36.4531 6.9375 36.4688 6.96484 36.4688 7.00391V7.50781C36.4141 7.72656 36.3594 7.93359 36.3047 8.12891C36.2578 8.31641 36.2148 8.50391 36.1758 8.69141C36.1445 8.87109 36.1211 9.05469 36.1055 9.24219C36.0898 9.42969 36.082 9.62891 36.082 9.83984C36.207 9.83984 36.3555 9.8125 36.5273 9.75781C36.707 9.70312 36.8867 9.63672 37.0664 9.55859C37.2461 9.48047 37.4141 9.40234 37.5703 9.32422C37.7266 9.23828 37.8516 9.16797 37.9453 9.11328C37.9609 9.10547 37.9961 9.07812 38.0508 9.03125C38.1055 8.98438 38.1641 8.9375 38.2266 8.89062C38.2891 8.83594 38.3477 8.78906 38.4023 8.75C38.4648 8.70312 38.5039 8.67188 38.5195 8.65625C38.5352 8.64062 38.5742 8.62109 38.6367 8.59766C38.6992 8.56641 38.7344 8.54688 38.7422 8.53906C38.7734 8.53125 38.8008 8.54297 38.8242 8.57422C38.8555 8.59766 38.8828 8.62891 38.9062 8.66797C38.9297 8.69922 38.9453 8.73438 38.9531 8.77344C38.9688 8.80469 38.9766 8.82422 38.9766 8.83203C38.9766 8.91016 38.9453 8.98828 38.8828 9.06641C38.8203 9.14453 38.7461 9.21875 38.6602 9.28906C38.5742 9.35156 38.4844 9.41406 38.3906 9.47656C38.3047 9.53125 38.2383 9.58203 38.1914 9.62891C38.1289 9.66016 38.0195 9.71094 37.8633 9.78125C37.7148 9.85156 37.5547 9.92578 37.3828 10.0039C37.2109 10.082 37.0469 10.1562 36.8906 10.2266C36.7422 10.2969 36.6367 10.3477 36.5742 10.3789C36.5586 10.3867 36.5234 10.3984 36.4688 10.4141C36.4141 10.4219 36.3555 10.4375 36.293 10.4609C36.2305 10.4844 36.168 10.5039 36.1055 10.5195C36.0508 10.5273 36.0156 10.5352 36 10.543C35.9297 10.5664 35.875 10.6055 35.8359 10.6602C35.8047 10.7148 35.7695 10.7695 35.7305 10.8242C35.6992 10.8789 35.6562 10.9258 35.6016 10.9648C35.5547 11.0039 35.4766 11.0156 35.3672 11C35.3594 10.9922 35.3242 10.9766 35.2617 10.9531C35.207 10.9219 35.1719 10.8984 35.1562 10.8828C34.9688 10.75 34.8086 10.625 34.6758 10.5078C34.543 10.3906 34.4219 10.2773 34.3125 10.168C34.2031 10.0508 34.0977 9.92578 33.9961 9.79297C33.9023 9.66016 33.793 9.51172 33.668 9.34766ZM34.4062 8.87891C34.4609 8.99609 34.5117 9.10938 34.5586 9.21875C34.6133 9.32812 34.6758 9.43359 34.7461 9.53516C34.8164 9.62891 34.8945 9.71094 34.9805 9.78125C35.0742 9.85156 35.1875 9.89453 35.3203 9.91016C35.3359 9.79297 35.3555 9.65234 35.3789 9.48828C35.4023 9.32422 35.4297 9.15234 35.4609 8.97266C35.4922 8.79297 35.5273 8.61719 35.5664 8.44531C35.6133 8.26562 35.6641 8.10938 35.7188 7.97656H35.6016C35.4766 8.0625 35.3594 8.14844 35.25 8.23438C35.1484 8.3125 35.0469 8.39062 34.9453 8.46875C34.8438 8.53906 34.7617 8.60156 34.6992 8.65625C34.6914 8.66406 34.6797 8.67578 34.6641 8.69141C34.6484 8.70703 34.6367 8.71484 34.6289 8.71484C34.6211 8.73047 34.5859 8.75781 34.5234 8.79688C34.4609 8.83594 34.4219 8.86328 34.4062 8.87891ZM35.7188 7.80078C35.6953 7.80078 35.6836 7.82031 35.6836 7.85938C35.6836 7.89062 35.6953 7.90625 35.7188 7.90625C35.75 7.90625 35.7656 7.89062 35.7656 7.85938C35.7656 7.82031 35.75 7.80078 35.7188 7.80078ZM38.0859 13.4961C38.0859 13.2695 38.1133 13.0156 38.168 12.7344C38.2227 12.4609 38.2812 12.1836 38.3438 11.9023C38.4062 11.6289 38.4648 11.3594 38.5195 11.0938C38.5742 10.8281 38.6016 10.5781 38.6016 10.3438V10.25L38.8828 9.46484C38.9844 9.23828 39.1016 9.00391 39.2344 8.76172C39.3672 8.51953 39.5156 8.29688 39.6797 8.09375C39.8516 7.88281 40.0469 7.70703 40.2656 7.56641C40.4844 7.41797 40.7305 7.32422 41.0039 7.28516C41.0977 7.26953 41.1992 7.28906 41.3086 7.34375C41.418 7.39062 41.5195 7.45312 41.6133 7.53125C41.7148 7.60938 41.7969 7.69922 41.8594 7.80078C41.9219 7.90234 41.9609 8 41.9766 8.09375C41.9766 8.10938 41.9766 8.14062 41.9766 8.1875C41.9766 8.23438 41.9766 8.28516 41.9766 8.33984C41.9766 8.39453 41.9766 8.44531 41.9766 8.49219C41.9766 8.53906 41.9766 8.57422 41.9766 8.59766C41.9766 8.81641 41.9453 9.02734 41.8828 9.23047C41.8203 9.43359 41.7891 9.62891 41.7891 9.81641V9.85156C41.8125 9.83594 41.8672 9.80859 41.9531 9.76953C42.0391 9.73047 42.1367 9.6875 42.2461 9.64062C42.3633 9.59375 42.4883 9.54297 42.6211 9.48828C42.7617 9.43359 42.8945 9.38281 43.0195 9.33594C43.1445 9.28906 43.2539 9.25391 43.3477 9.23047C43.4492 9.19922 43.5195 9.18359 43.5586 9.18359C43.6523 9.18359 43.707 9.19922 43.7227 9.23047C43.7461 9.25391 43.7578 9.29688 43.7578 9.35938C43.7578 9.44531 43.707 9.53125 43.6055 9.61719C43.5039 9.70312 43.3711 9.78516 43.207 9.86328C43.0508 9.94141 42.875 10.0156 42.6797 10.0859C42.4922 10.1484 42.3086 10.207 42.1289 10.2617C41.957 10.3164 41.8047 10.3711 41.6719 10.4258C41.5391 10.4727 41.4492 10.5078 41.4023 10.5312C41.3164 10.5938 41.2344 10.6602 41.1562 10.7305C41.0859 10.8008 41.0117 10.8633 40.9336 10.918C40.8555 10.9727 40.7734 11.0195 40.6875 11.0586C40.6016 11.0977 40.5039 11.1172 40.3945 11.1172C40.2305 11.1172 40.0703 11.0742 39.9141 10.9883C39.7656 10.8945 39.6289 10.8008 39.5039 10.707L39.4453 10.7539C39.4453 10.7617 39.418 10.8672 39.3633 11.0703C39.3164 11.2734 39.2578 11.5078 39.1875 11.7734C39.125 12.0469 39.0586 12.3164 38.9883 12.582C38.9258 12.8477 38.875 13.0547 38.8359 13.2031C38.8203 13.2891 38.8086 13.375 38.8008 13.4609C38.793 13.5547 38.7734 13.6406 38.7422 13.7188C38.7188 13.8047 38.6758 13.875 38.6133 13.9297C38.5508 13.9844 38.4648 14.0117 38.3555 14.0117H38.2031C38.1562 13.918 38.125 13.832 38.1094 13.7539C38.0938 13.6836 38.0859 13.5977 38.0859 13.4961ZM39.6562 10.0391C39.7422 10.0938 39.832 10.125 39.9258 10.1328C40.0195 10.1406 40.1094 10.1406 40.1953 10.1328C40.2891 10.1172 40.3789 10.0977 40.4648 10.0742C40.5586 10.0508 40.6484 10.0391 40.7344 10.0391C40.75 10.0391 40.7852 10.0391 40.8398 10.0391C40.8945 10.0312 40.9258 10.0273 40.9336 10.0273C41.0273 9.98047 41.1016 9.89453 41.1562 9.76953C41.2109 9.64453 41.25 9.51172 41.2734 9.37109C41.3047 9.23047 41.3242 9.09375 41.332 8.96094C41.3398 8.82031 41.3438 8.71094 41.3438 8.63281C41.3438 8.5625 41.3398 8.48828 41.332 8.41016C41.3242 8.33203 41.3047 8.26172 41.2734 8.19922C41.25 8.12891 41.2148 8.07031 41.168 8.02344C41.1211 7.97656 41.0547 7.95312 40.9688 7.95312C40.9531 7.95312 40.9258 7.95703 40.8867 7.96484C40.8555 7.96484 40.832 7.96484 40.8164 7.96484C40.7852 8.05859 40.7188 8.1875 40.6172 8.35156C40.5234 8.50781 40.4219 8.67188 40.3125 8.84375C40.2109 9.01562 40.1172 9.18359 40.0312 9.34766C39.9453 9.50391 39.9023 9.625 39.9023 9.71094L39.6562 10.0391ZM43.5352 10.0859C43.5352 10.0781 43.5391 10.0508 43.5469 10.0039C43.5547 9.95703 43.5625 9.91016 43.5703 9.86328C43.5781 9.80859 43.5859 9.76172 43.5938 9.72266C43.6016 9.67578 43.6055 9.64453 43.6055 9.62891V9.58203V9.51172L43.7695 8.77344C43.9023 8.49219 44.0391 8.22266 44.1797 7.96484C44.3281 7.70703 44.4961 7.48047 44.6836 7.28516C44.8711 7.08984 45.0859 6.93359 45.3281 6.81641C45.5781 6.69922 45.8789 6.64062 46.2305 6.64062C46.3008 6.64062 46.3867 6.66406 46.4883 6.71094C46.5977 6.75 46.7031 6.80078 46.8047 6.86328C46.9141 6.92578 47.0117 6.99219 47.0977 7.0625C47.1914 7.125 47.2617 7.18359 47.3086 7.23828C47.5508 7.19922 47.7266 7.17969 47.8359 7.17969C47.9453 7.17188 48.0391 7.16797 48.1172 7.16797C48.1953 7.16016 48.2773 7.14453 48.3633 7.12109C48.457 7.09766 48.5977 7.04688 48.7852 6.96875C48.918 6.92969 49.0469 6.91016 49.1719 6.91016C49.2266 6.91016 49.2773 6.93359 49.3242 6.98047C49.3789 7.02734 49.4062 7.08203 49.4062 7.14453C49.4062 7.22266 49.3789 7.29297 49.3242 7.35547C49.2695 7.41797 49.2031 7.45703 49.125 7.47266L47.6602 7.80078L47.5312 7.85938C47.5234 8.28125 47.4297 8.68359 47.25 9.06641C47.0703 9.44922 46.832 9.78516 46.5352 10.0742C46.2383 10.3633 45.8945 10.5938 45.5039 10.7656C45.1133 10.9297 44.707 11.0117 44.2852 11.0117C44.2539 11.0117 44.2031 11.0078 44.1328 11C44.0625 11 44.0156 11 43.9922 11C43.8203 10.9297 43.6992 10.8008 43.6289 10.6133C43.5664 10.4258 43.5352 10.25 43.5352 10.0859ZM44.2852 10.3203C44.293 10.3594 44.3242 10.3789 44.3789 10.3789C44.4336 10.3789 44.4727 10.3789 44.4961 10.3789C44.7773 10.3789 45.0664 10.3086 45.3633 10.168C45.6602 10.0195 45.9258 9.83203 46.1602 9.60547C46.4023 9.37109 46.5977 9.10938 46.7461 8.82031C46.9023 8.52344 46.9805 8.22656 46.9805 7.92969C46.7305 7.92969 46.4805 7.91016 46.2305 7.87109C45.9805 7.82422 45.7383 7.80078 45.5039 7.80078H45.4922L44.5195 8.83203C44.4648 8.88672 44.4219 8.96094 44.3906 9.05469C44.3594 9.14844 44.3359 9.25 44.3203 9.35938C44.3047 9.46875 44.293 9.57812 44.2852 9.6875C44.2773 9.79688 44.2734 9.89453 44.2734 9.98047C44.2734 10.0039 44.2734 10.0586 44.2734 10.1445C44.2734 10.2305 44.2773 10.2891 44.2852 10.3203ZM49.3828 7.85938C49.3984 7.82812 49.4297 7.78125 49.4766 7.71875C49.5234 7.64844 49.5469 7.58984 49.5469 7.54297V7.50781C49.5469 7.5 49.5391 7.49219 49.5234 7.48438C49.5078 7.46875 49.4961 7.46094 49.4883 7.46094H49.2773C49.0742 7.52344 48.8477 7.56641 48.5977 7.58984C48.3398 7.61328 48.0938 7.62109 47.8594 7.61328C47.6172 7.60547 47.4102 7.58594 47.2383 7.55469C47.0664 7.51562 46.9648 7.47266 46.9336 7.42578C46.9023 7.37891 46.9609 7.32422 47.1094 7.26172C47.2578 7.19141 47.5391 7.12109 47.9531 7.05078C47.9766 7.05078 48.0312 7.04297 48.1172 7.02734C48.1953 7.00391 48.2852 6.98438 48.3867 6.96875C48.4805 6.95312 48.5703 6.9375 48.6562 6.92188C48.7422 6.89844 48.7969 6.88672 48.8203 6.88672C48.8516 6.87891 48.918 6.875 49.0195 6.875C49.1211 6.86719 49.2227 6.85938 49.3242 6.85156C49.4336 6.84375 49.5352 6.83984 49.6289 6.83984C49.7305 6.83984 49.8008 6.83984 49.8398 6.83984L49.8984 6.76953L50.8125 5.23438C50.8438 5.17969 50.8984 5.13672 50.9766 5.10547C51.0625 5.07422 51.1289 5.05859 51.1758 5.05859C51.2773 5.05859 51.3477 5.10156 51.3867 5.1875C51.4258 5.26562 51.4453 5.34375 51.4453 5.42188C51.4453 5.42969 51.4414 5.4375 51.4336 5.44531C51.4336 5.45312 51.4336 5.46094 51.4336 5.46875V5.51562L50.918 6.76953V6.83984C50.9336 6.79297 50.9609 6.76953 51 6.76953C51.0469 6.76953 51.082 6.76953 51.1055 6.76953C51.2227 6.76953 51.3359 6.80859 51.4453 6.88672C51.5547 6.96484 51.6094 7.07031 51.6094 7.20312C51.6094 7.26562 51.5898 7.31641 51.5508 7.35547C51.5117 7.39453 51.4648 7.42578 51.4102 7.44922C51.3555 7.47266 51.2969 7.49219 51.2344 7.50781C51.1719 7.51562 51.1172 7.51953 51.0703 7.51953C50.9766 7.51953 50.8867 7.50781 50.8008 7.48438C50.7227 7.46094 50.6367 7.44922 50.543 7.44922C50.457 7.44922 50.3789 7.49609 50.3086 7.58984C50.2383 7.67578 50.1719 7.79297 50.1094 7.94141C50.0547 8.08203 50.0078 8.24219 49.9688 8.42188C49.9297 8.60156 49.8945 8.77734 49.8633 8.94922C49.832 9.12109 49.8086 9.28125 49.793 9.42969C49.7852 9.57812 49.7812 9.69141 49.7812 9.76953C49.7812 9.80078 49.7812 9.86328 49.7812 9.95703C49.7891 10.0508 49.793 10.1133 49.793 10.1445C49.8008 10.1914 49.8203 10.2344 49.8516 10.2734C49.8828 10.3047 49.9141 10.3398 49.9453 10.3789H50.2148C50.5273 10.3789 50.8359 10.3086 51.1406 10.168C51.4531 10.0273 51.7461 9.86719 52.0195 9.6875C52.0352 9.67969 52.0703 9.64453 52.125 9.58203C52.1875 9.51172 52.2539 9.44531 52.3242 9.38281C52.3945 9.3125 52.457 9.25 52.5117 9.19531C52.5742 9.14062 52.6172 9.11328 52.6406 9.11328C52.6953 9.11328 52.7461 9.14062 52.793 9.19531C52.8398 9.25 52.8633 9.30859 52.8633 9.37109C52.8633 9.51953 52.8086 9.66406 52.6992 9.80469C52.5977 9.94531 52.4648 10.0781 52.3008 10.2031C52.1367 10.3203 51.9492 10.4297 51.7383 10.5312C51.5273 10.6328 51.3164 10.7188 51.1055 10.7891C50.9023 10.8594 50.707 10.9141 50.5195 10.9531C50.3398 10.9922 50.1914 11.0117 50.0742 11.0117C49.9648 11.0117 49.8516 11 49.7344 10.9766C49.6172 10.9453 49.5117 10.8984 49.418 10.8359C49.3242 10.7734 49.2461 10.6953 49.1836 10.6016C49.1211 10.5078 49.0898 10.3906 49.0898 10.25V8.94922L49.3828 7.85938Z" fill="#FF7676"/>
</g>
<defs>
<clipPath id="clip0_46_206">
<rect width="61" height="25" fill="white"/>
</clipPath>
</defs>
</svg>
